<svg width="16" height="16" viewBox="0 0 16 16" fill="none" xmlns="http://www.w3.org/2000/svg">
<path d="M6.464 8.83197C6.416 8.83197 5.36 8.83197 4.88 8.83197C4.624 8.83197 4.544 8.73597 4.544 8.49597C4.544 7.85597 4.544 7.19997 4.544 6.55997C4.544 6.30397 4.64 6.22397 4.88 6.22397H6.464C6.464 6.17597 6.464 5.24797 6.464 4.81597C6.464 4.17597 6.576 3.56797 6.896 3.00797C7.232 2.43197 7.712 2.04797 8.32 1.82397C8.72 1.67997 9.12 1.61597 9.552 1.61597H11.12C11.344 1.61597 11.44 1.71197 11.44 1.93597V3.75997C11.44 3.98397 11.344 4.07997 11.12 4.07997C10.688 4.07997 10.256 4.07997 9.824 4.09597C9.392 4.09597 9.168 4.30397 9.168 4.75197C9.152 5.23197 9.168 5.69597 9.168 6.19197H11.024C11.28 6.19197 11.376 6.28797 11.376 6.54397V8.47997C11.376 8.73597 11.296 8.81597 11.024 8.81597C10.448 8.81597 9.216 8.81597 9.168 8.81597V14.032C9.168 14.304 9.088 14.4 8.8 14.4C8.128 14.4 7.472 14.4 6.8 14.4C6.56 14.4 6.464 14.304 6.464 14.064C6.464 12.384 6.464 8.87997 6.464 8.83197Z" fill="#EAECF0"/>
</svg>
