<svg width="16" height="16" viewBox="0 0 16 16" fill="none" xmlns="http://www.w3.org/2000/svg">
<path d="M14.4 14.4002V9.71219C14.4 7.40819 13.904 5.64819 11.216 5.64819C9.92 5.64819 9.056 6.35219 8.704 7.02419H8.672V5.85619H6.128V14.4002H8.784V10.1602C8.784 9.04019 8.992 7.96819 10.368 7.96819C11.728 7.96819 11.744 9.23219 11.744 10.2242V14.3842H14.4V14.4002Z" fill="white"/>
<path d="M1.808 5.8562H4.464V14.4002H1.808V5.8562Z" fill="white"/>
<path d="M3.136 1.6001C2.288 1.6001 1.6 2.2881 1.6 3.1361C1.6 3.9841 2.288 4.6881 3.136 4.6881C3.984 4.6881 4.672 3.9841 4.672 3.1361C4.672 2.2881 3.984 1.6001 3.136 1.6001Z" fill="white"/>
</svg>
