<svg width="101" height="24" viewBox="0 0 101 24" fill="none" xmlns="http://www.w3.org/2000/svg">
<path d="M57.9493 6.41425C59.0047 6.41425 59.8603 5.7551 59.8603 4.94199C59.8603 4.12888 59.0047 3.46973 57.9493 3.46973C56.8939 3.46973 56.0383 4.12888 56.0383 4.94199C56.0383 5.7551 56.8939 6.41425 57.9493 6.41425Z" fill="#E6F0ED"/>
<path d="M49.592 5.08377V17.8141H53.1486V4.3689H50.42C49.963 4.3689 49.5931 4.68868 49.5931 5.08377H49.592Z" fill="#E6F0ED"/>
<path d="M56.1748 8.66238V17.8131H59.7314V7.94751H57.0027C56.5457 7.94751 56.1758 8.2673 56.1758 8.66238H56.1748Z" fill="#E6F0ED"/>
<path d="M69.3604 7.71817C67.7404 7.71817 66.6 8.44367 66.0958 8.84053V7.9476H63.3672C62.9102 7.9476 62.5403 8.26739 62.5403 8.66247V21.7596H66.0969V17.4154C66.6368 17.7689 67.3664 18.0196 68.3531 18.0196C71.671 18.0196 74.2182 15.5419 74.2182 12.4211C74.2182 9.30028 71.591 7.71729 69.3614 7.71729L69.3604 7.71817ZM68.1923 16.9645C67.4627 16.9645 66.6891 16.3684 66.0958 15.7713V10.4811C66.6491 10.0054 67.5908 9.32419 68.4044 9.32419C69.6247 9.32419 70.7662 10.7699 70.7662 12.8808C70.7662 14.9918 69.6514 16.9645 68.1923 16.9645Z" fill="#E6F0ED"/>
<path d="M80.9893 7.71826C77.8579 7.71826 76.823 8.29228 76.823 8.29228L77.195 8.98058C77.195 8.98058 78.3631 8.61384 80.2741 8.61384C82.3971 8.61384 82.6092 9.60067 82.6092 10.8169V11.3839C82.1543 11.2687 81.2833 11.0915 80.1941 11.0915C78.5752 11.0915 75.7092 11.6425 75.7092 14.51C75.7092 17.3774 78.2575 18.0206 79.9288 18.0206C80.9073 18.0206 81.9278 17.5812 82.6092 17.2162V17.8142H86.1658V10.816C86.1658 8.75115 84.1227 7.71826 80.9903 7.71826H80.9893ZM80.7772 16.7122C79.2914 16.7122 78.3621 15.9548 78.3621 14.5552C78.3621 13.1555 80.0076 12.2839 81.3079 12.2839C81.9627 12.2839 82.3674 12.4637 82.6082 12.6426V16.0637C82.1891 16.3782 81.5641 16.7122 80.7772 16.7122Z" fill="#E6F0ED"/>
<path d="M100.27 7.71817H97.8838L94.6818 14.0227L94.5937 13.8739L90.9438 7.71729H87.3002L92.8671 17.1089L93.0003 17.3331L92.4173 18.4802C91.5187 20.0216 88.9447 19.9188 88.9447 19.9188V21.2095C88.9447 21.2095 90.0524 21.2901 90.8557 21.2095C91.6201 21.1333 93.3231 20.693 94.151 19.1738L95.8519 15.991L100.271 7.71817H100.27Z" fill="#E6F0ED"/>
<path d="M40.7982 4.36963H39.2889L38.0624 6.57536L31.8069 17.814H34.2107L35.4495 15.5888H42.8988L44.0935 17.814H48.0159L41.2368 5.18726L40.7972 4.36963H40.7982ZM42.3936 14.648H35.9731L39.2407 8.7749L42.3936 14.648Z" fill="#E6F0ED"/>
<path d="M27.8864 3.76392V20.2751C27.8608 22.3373 25.9211 24 23.5326 24H4.47509C2.07023 24 0.121338 22.3151 0.121338 20.2361V3.76392C0.121338 1.68486 2.07023 0 4.47509 0H23.5326C25.9375 0 27.8864 1.68486 27.8864 3.76392Z" fill="#E6F0ED"/>
<path d="M18.6775 13.4913C20.1038 11.1234 21.0506 8.62357 21.0506 8.62357H15.5441V6.94668H22.3304V5.92531H15.5441V3.22705H12.3851V5.92531H5.59781V6.94668H12.3841V8.62357H6.67677V9.52093H17.7051C17.7051 9.52093 17.0934 11.1456 16.0677 12.7533C13.1095 11.9632 10.3799 11.4122 8.18813 11.4122C2.93371 11.4122 1.76766 13.695 2.01562 15.782C2.21645 17.4474 3.64892 19.879 8.02828 19.879C12.0285 19.879 15.2572 17.8965 17.245 15.5367C21.0352 17.0452 25.0385 18.9037 27.885 20.275V16.3162C24.8756 15.4242 21.7064 14.3833 18.6744 13.4913H18.6775ZM7.39402 18.4688C3.69298 18.4688 3.1202 16.6652 3.05667 15.5889C2.99621 14.6473 3.73192 12.88 7.91045 12.88C9.46485 12.88 11.9291 13.5657 14.6967 14.5649C13.1331 16.341 10.6268 18.4688 7.39402 18.4688Z" fill="#53918C"/>
</svg>
