<svg width="118" height="32" viewBox="0 0 118 32" fill="none" xmlns="http://www.w3.org/2000/svg">
<path d="M5.97497 18.4682C6.08759 18.7344 6.05005 19.1128 6.01251 19.3029C5.89989 19.6832 5.67464 20.0616 4.88816 20.0616C4.17675 20.0616 3.7638 19.6433 3.7638 19.0367V17.9357H0.728607V18.8085C0.728607 21.3908 2.71453 22.1494 4.85061 22.1494C6.9867 22.1494 8.59909 21.4288 8.86 19.5292C9.01016 18.5423 8.89754 17.8977 8.86 17.6315C8.37196 15.2394 4.06225 14.5188 3.7638 13.1516C3.72626 12.9234 3.72626 12.6952 3.7638 12.545C3.83888 12.1647 4.10167 11.7863 4.81307 11.7863C5.48694 11.7863 5.86235 12.2046 5.86235 12.8112V13.5319H8.67229V12.7352C8.67229 10.229 6.46113 9.85059 4.84874 9.85059C2.82527 9.85059 1.17535 10.5332 0.876894 12.3948C0.801812 12.8892 0.801812 13.3436 0.914435 13.9521C1.36493 16.3423 5.41185 16.9888 5.97309 18.4701" fill="#E6F0ED"/>
<path d="M11.9359 21.7331L14.0344 10.2671H19.0574L21.156 21.7331H18.1189L16.5835 11.292H16.5459L14.9711 21.7331H11.9359Z" fill="#E6F0ED"/>
<path d="M36.522 10.2671L36.7848 21.7331H33.9373L33.8622 11.4061H33.7871L31.9138 21.7331H29.0269L27.1536 11.4061H27.0785L27.0035 21.7331H24.156L24.4169 10.2671H29.0645L30.4516 19.0368H30.4891L31.9138 10.2671H36.522Z" fill="#E6F0ED"/>
<path d="M44.956 18.411C45.0687 18.6772 45.0311 19.0176 44.9936 19.2458C44.9185 19.6261 44.6557 20.0045 43.9068 20.0045C43.1578 20.0045 42.7824 19.5861 42.7824 18.9796V17.8786H39.7848V18.7514C39.7848 21.2956 41.7707 22.0543 43.8692 22.0543C45.9678 22.0543 47.5802 21.3697 47.8411 19.472C47.9912 18.4852 47.8786 17.8406 47.8411 17.6124C47.353 15.2203 43.1184 14.5377 42.82 13.2085C42.7449 12.9803 42.7824 12.7522 42.82 12.6019C42.895 12.2216 43.1578 11.8432 43.8317 11.8432C44.5055 11.8432 44.881 12.2616 44.881 12.8682V13.5888H47.6909V12.7921C47.6909 10.324 45.4797 9.94556 43.9049 9.94556C41.919 9.94556 40.269 10.5902 39.9706 12.4517C39.8955 12.9461 39.858 13.4006 40.0081 13.971C40.4192 16.287 44.3929 16.9316 44.9542 18.4129" fill="#E6F0ED"/>
<path d="M54.8907 19.7964C55.6772 19.7964 55.94 19.264 55.9775 18.9617C56.015 18.8476 56.015 18.6574 56.015 18.5072V10.0779H58.9001V18.3171C58.9001 18.5452 58.8625 18.9617 58.8625 19.0757C58.6748 21.2016 56.9892 21.9223 54.8888 21.9223C52.7884 21.9223 51.1403 21.2377 50.9545 19.0757C50.9545 18.9617 50.917 18.5433 50.917 18.3171V10.0779H53.802V18.5814C53.802 18.7335 53.802 18.8856 53.8395 19.0377C53.8771 19.2659 54.1023 19.7964 54.8888 19.7964" fill="#E6F0ED"/>
<path d="M71.4186 10.324V21.6759H67.3717L64.5993 12.3358H64.5242L64.6743 21.6759H61.9001V10.324H66.0971L68.7213 19.3218H68.7588L68.6086 10.324H71.4186Z" fill="#E6F0ED"/>
<path d="M78.4298 19.9304C79.2539 19.9304 79.5166 19.3979 79.5917 19.0956C79.6293 18.9815 79.6293 18.7914 79.6293 18.6773V17.0078H78.4674V15.3363H82.4768V18.4111C82.4768 18.6392 82.4768 18.7914 82.4392 19.1698C82.2515 21.2576 80.4533 22.0163 78.4298 22.0163C76.4064 22.0163 74.6438 21.2576 74.4561 19.1698C74.4186 18.7895 74.4186 18.6373 74.4186 18.4111V13.5889C74.4186 13.3987 74.4561 13.0203 74.4561 12.8302C74.7189 10.6663 76.4045 9.98364 78.4298 9.98364C80.4552 9.98364 82.2158 10.6663 82.4017 12.8302C82.4392 13.1724 82.4392 13.5889 82.4392 13.5889V13.9692H79.5917V13.3246C79.5917 13.3246 79.5917 13.0584 79.5542 12.8682C79.5167 12.602 79.2914 12.0335 78.4298 12.0335C77.5683 12.0335 77.3806 12.602 77.3055 12.8682C77.2679 13.0203 77.2679 13.2105 77.2679 13.4006V18.6392C77.2679 18.7914 77.2679 18.9435 77.3055 19.0576C77.3055 19.4379 77.6058 19.9304 78.4298 19.9304Z" fill="#E6F0ED"/>
<path d="M116.816 11.2158C116.44 8.25522 115.391 5.5589 113.555 3.58515C111.607 1.72549 108.945 0.662552 106.023 0.282253C103.213 -0.0980458 101.3 0.0160439 101.3 0.0160439C101.3 0.0160439 99.389 -0.0600159 96.5772 0.282253C93.6547 0.662552 90.993 1.72549 89.0446 3.58515C87.2089 5.5589 86.1596 8.25522 85.7842 11.2158C85.4088 14.0624 85.4839 16 85.4839 16C85.4839 16 85.4088 17.9357 85.7466 20.7842C86.1221 23.7448 87.1713 26.4411 89.0071 28.4149C90.9555 30.2745 93.6171 31.3375 96.5397 31.7178C99.3496 32.098 101.262 31.984 101.262 31.984C101.262 31.984 103.173 32.06 105.985 31.7178C108.908 31.3375 111.569 30.2745 113.518 28.4149C115.353 26.4411 116.403 23.7448 116.778 20.7842C117.153 17.9376 117.041 16 117.041 16C117.041 16 117.191 14.0643 116.816 11.2158Z" fill="#E6F0ED"/>
<path d="M91.3594 11.33H94.1993C94.6486 11.33 95.0212 11.4061 95.3956 11.5582C95.77 11.7103 96.0677 11.9385 96.3298 12.2028C96.5919 12.4671 96.8165 12.7714 96.9644 13.1517C97.1142 13.532 97.1891 13.9104 97.1891 14.3287C97.1891 14.747 97.1142 15.1254 96.9644 15.5057C96.8146 15.886 96.59 16.1902 96.3298 16.4546C96.0695 16.7189 95.7326 16.9489 95.3956 17.0992C95.0586 17.2513 94.6486 17.3273 94.1993 17.3273H92.9282V19.7194H91.3949V11.3281H91.3575L91.3594 11.33ZM92.8926 12.7733V15.848H94.0889C94.3135 15.848 94.5382 15.8099 94.7235 15.7339C94.9088 15.6578 95.0605 15.5437 95.2103 15.3916C95.36 15.2395 95.4349 15.0874 95.5098 14.8972C95.5847 14.7071 95.6221 14.5169 95.6221 14.2907C95.6221 14.0644 95.5847 13.8723 95.5098 13.6841C95.4349 13.4939 95.3226 13.3418 95.2103 13.1897C95.0605 13.0376 94.9107 12.9235 94.7235 12.8474C94.5363 12.7714 94.3116 12.7333 94.0889 12.7333H92.8926V12.7714V12.7733ZM100.742 19.7213C100.33 19.7213 99.9579 19.6453 99.546 19.4931C99.1716 19.341 98.7991 19.1128 98.4995 18.8485C98.2 18.5443 97.9398 18.202 97.7526 17.7856C97.5653 17.3692 97.453 16.8748 97.453 16.3424C97.453 15.8099 97.5279 15.3175 97.7151 14.8991C97.9023 14.4808 98.1644 14.1404 98.4621 13.8362C98.7597 13.532 99.1342 13.3418 99.5086 13.1916C99.9204 13.0395 100.293 12.9634 100.742 12.9634C101.192 12.9634 101.602 13.0395 101.939 13.1916C102.313 13.3437 102.611 13.5719 102.873 13.8362V12.9634H104.406V19.7213H102.873V18.7725C102.648 19.0767 102.313 19.3049 101.939 19.4931C101.564 19.6453 101.192 19.7213 100.742 19.7213ZM101.004 18.3161C101.304 18.3161 101.564 18.2781 101.789 18.164C102.013 18.0499 102.238 17.9358 102.423 17.7457C102.609 17.5555 102.723 17.3654 102.835 17.1391C102.948 16.9109 102.985 16.6447 102.985 16.3804C102.985 16.1161 102.948 15.848 102.835 15.6217C102.723 15.3935 102.611 15.1653 102.423 15.0151C102.236 14.825 102.049 14.7109 101.789 14.5968C101.527 14.4447 101.265 14.4066 101.004 14.4066C100.744 14.4066 100.48 14.4447 100.22 14.5588C99.9579 14.6729 99.7707 14.7869 99.5853 14.9771C99.4 15.1672 99.2484 15.3574 99.1735 15.5837C99.0611 15.8118 99.0237 16.0781 99.0237 16.3424C99.0237 16.6067 99.0611 16.8729 99.1735 17.1011C99.2858 17.3292 99.4356 17.5574 99.5853 17.7476C99.7725 17.9377 99.9972 18.0518 100.22 18.1659C100.445 18.242 100.707 18.318 101.004 18.318M106.536 13.0033L108.405 17.5974L110.123 13.0033H111.731L107.808 22.7979H106.237L107.62 19.419L104.928 13.0033H106.536Z" fill="#00152E"/>
</svg>
