<svg width="116" height="24" viewBox="0 0 116 24" fill="none" xmlns="http://www.w3.org/2000/svg">
<path fill-rule="evenodd" clip-rule="evenodd" d="M18.2406 23.8267H11.9509L7.23429 6.55968C7.01042 5.7654 6.53508 5.06321 5.83588 4.73226C4.09093 3.90056 2.16811 3.23866 0.0704956 2.90483V2.24005H10.2028C11.6013 2.24005 12.6501 3.23866 12.8249 4.39843L15.2721 16.8537L21.5588 2.24005H27.6738L18.2406 23.8267ZM31.1695 23.8267H25.2293L30.1207 2.24005H36.0609L31.1695 23.8267ZM43.7466 8.2202C43.9214 7.05755 44.9702 6.39277 46.1938 6.39277C48.1166 6.22586 50.2112 6.55969 51.9592 7.3885L53.008 2.7408C51.26 2.07602 49.3372 1.74219 47.5922 1.74219C41.8269 1.74219 37.6316 4.73226 37.6316 8.8821C37.6316 12.0391 40.6032 13.6967 42.7009 14.6953C44.9702 15.6911 45.8442 16.3558 45.6694 17.3516C45.6694 18.8452 43.9214 19.51 42.1765 19.51C40.0788 19.51 37.9812 19.0121 36.0615 18.1804L35.0127 22.831C37.1103 23.6598 39.3796 23.9936 41.4772 23.9936C47.9418 24.1577 51.9592 21.1705 51.9592 16.6868C51.9592 11.0405 43.7466 10.7095 43.7466 8.2202ZM72.7457 23.8267L68.0291 2.24005H62.9629C61.9141 2.24005 60.8653 2.90483 60.5157 3.90056L51.7817 23.8267H57.8967L59.1173 20.6726H66.6307L67.3299 23.8267H72.7457ZM63.84 8.05344L65.5849 16.1891H60.6936L63.84 8.05344Z" fill="#E6F0ED"/>
<path fill-rule="evenodd" clip-rule="evenodd" d="M94.2243 21.1335C91.9493 22.9209 88.9984 24 85.7738 24C78.5786 24 72.7457 18.6274 72.7457 12C72.7457 5.37258 78.5786 0 85.7738 0C88.9984 0 91.9493 1.07905 94.2243 2.86652C96.4992 1.07905 99.4502 0 102.675 0C109.87 0 115.703 5.37258 115.703 12C115.703 18.6274 109.87 24 102.675 24C99.4502 24 96.4992 22.9209 94.2243 21.1335Z" fill="#E1E1E1"/>
<path fill-rule="evenodd" clip-rule="evenodd" d="M94.2245 21.1335C97.0258 18.9325 98.8021 15.6573 98.8021 12C98.8021 8.34269 97.0258 5.06751 94.2245 2.86649C96.4994 1.07904 99.4503 0 102.675 0C109.87 0 115.703 5.37258 115.703 12C115.703 18.6274 109.87 24 102.675 24C99.4503 24 96.4994 22.921 94.2245 21.1335Z" fill="#CBCBCB"/>
<path fill-rule="evenodd" clip-rule="evenodd" d="M94.2242 21.1336C97.0255 18.9326 98.8017 15.6574 98.8017 12.0001C98.8017 8.34286 97.0255 5.06772 94.2242 2.8667C91.4229 5.06772 89.6467 8.34287 89.6467 12.0001C89.6467 15.6574 91.4229 18.9326 94.2242 21.1336Z" fill="#CBCBCB"/>
</svg>
