<svg width="152" height="40" viewBox="0 0 152 40" fill="none" xmlns="http://www.w3.org/2000/svg">
<g opacity="0.9">
<path d="M33.232 19.9922C33.232 26.8047 27.7094 32.3272 20.897 32.3272C14.0845 32.3272 8.56195 26.8047 8.56195 19.9922C8.56195 13.1798 14.0845 7.65723 20.897 7.65723C27.7094 7.65723 33.232 13.1798 33.232 19.9922Z" stroke="#E6F0ED" stroke-width="3"/>
<path d="M25.6171 24.7124C23.072 27.2575 20.2077 28.8982 17.6935 29.5447C15.1416 30.2009 13.2441 29.7838 12.1748 28.7144C11.1055 27.6451 10.6884 25.7476 11.3446 23.1957C11.9911 20.6816 13.6318 17.8173 16.1769 15.2722C18.722 12.7271 21.5862 11.0864 24.1004 10.4399C26.6523 9.78371 28.5498 10.2008 29.6192 11.2701C30.6885 12.3394 31.1056 14.2369 30.4494 16.7888C29.8029 19.303 28.1622 22.1673 25.6171 24.7124Z" stroke="#E6F0ED" stroke-width="3"/>
<path d="M25.617 15.2722C28.162 17.8173 29.8027 20.6816 30.4492 23.1957C31.1054 25.7477 30.6883 27.6451 29.619 28.7145C28.5497 29.7838 26.6522 30.2009 24.1003 29.5447C21.5861 28.8982 18.7218 27.2575 16.1767 24.7124C13.6317 22.1673 11.991 19.303 11.3445 16.7889C10.6883 14.2369 11.1054 12.3394 12.1747 11.2701C13.244 10.2008 15.1415 9.78372 17.6934 10.4399C20.2076 11.0864 23.0719 12.7271 25.617 15.2722Z" stroke="#E6F0ED" stroke-width="3"/>
<path d="M53.507 28.5333C57.432 28.5333 60.082 26.4833 60.082 23.2083C60.082 16.2833 50.882 19.2333 50.882 15.5833C50.882 14.5583 51.807 13.8583 53.282 13.8583C54.957 13.8583 56.007 14.7583 56.132 16.1333H59.707C59.607 12.8083 57.057 10.6333 53.282 10.6333C49.732 10.6333 47.232 12.6833 47.232 15.5833C47.232 22.4583 56.307 19.8333 56.307 23.2583C56.307 24.5833 55.182 25.2833 53.507 25.2833C51.657 25.2833 50.482 24.1583 50.332 22.3833H46.732C46.882 26.1083 49.532 28.5333 53.507 28.5333Z" fill="#E6F0ED"/>
<path d="M60.9322 33.4333H64.4072V27.2083C65.0822 28.0583 66.3072 28.5333 67.7322 28.5333C71.3572 28.5333 73.8072 25.9583 73.8072 22.0333C73.8072 18.1083 71.5572 15.5333 68.0322 15.5333C66.4072 15.5333 65.1572 16.1333 64.4072 17.1083V15.7333H60.9322V33.4333ZM67.3072 25.5333C65.4322 25.5333 64.2072 24.1333 64.2072 22.0333C64.2072 19.9083 65.4322 18.5083 67.3072 18.5083C69.1322 18.5083 70.3822 19.9083 70.3822 22.0333C70.3822 24.1333 69.1322 25.5333 67.3072 25.5333Z" fill="#E6F0ED"/>
<path d="M74.648 28.3333H78.123V21.4333C78.123 19.8083 79.198 18.6333 80.723 18.6333C82.173 18.6333 83.173 19.7333 83.173 21.2583V28.3333H86.648V20.4833C86.648 17.5833 84.798 15.5333 81.973 15.5333C80.223 15.5333 78.848 16.2583 78.123 17.4833V10.2583H74.648V28.3333Z" fill="#E6F0ED"/>
<path d="M96.3691 24.0583C96.0941 25.1333 95.1691 25.6833 93.7691 25.6833C92.0191 25.6833 90.8941 24.5833 90.6441 22.8083H99.6941C99.7191 22.5333 99.7441 22.1583 99.7441 21.6833C99.7441 18.8083 97.9691 15.5333 93.5191 15.5333C89.2441 15.5333 87.2941 18.8083 87.2941 22.0083C87.2941 25.1833 89.4941 28.5333 93.7691 28.5333C96.8691 28.5333 99.2691 26.7833 99.7691 24.0583H96.3691ZM93.5191 18.0833C95.1941 18.0833 96.1691 19.2083 96.2691 20.6083H90.6941C90.9941 18.8583 91.9441 18.0833 93.5191 18.0833Z" fill="#E6F0ED"/>
<path d="M108.858 18.6333V15.7333H107.065C105.54 15.7333 104.59 16.2583 103.915 17.8333V15.7333H100.415V28.3333H103.915V22.2083C103.915 20.0583 104.69 18.6333 106.415 18.6333H108.858Z" fill="#E6F0ED"/>
<path d="M120.858 15.7333H117.358V22.6333C117.358 24.2333 116.283 25.4333 114.758 25.4333C113.333 25.4333 112.333 24.3333 112.333 22.8083V15.7333H108.858V23.5833C108.858 26.4583 110.708 28.5333 113.533 28.5333C115.258 28.5333 116.658 27.7833 117.358 26.5833V28.3333H120.858V15.7333Z" fill="#E6F0ED"/>
<path d="M122.358 28.3333H125.833V10.2583H122.358V28.3333Z" fill="#E6F0ED"/>
<path d="M135.754 24.0583C135.479 25.1333 134.554 25.6833 133.154 25.6833C131.404 25.6833 130.279 24.5833 130.029 22.8083H139.079C139.104 22.5333 139.129 22.1583 139.129 21.6833C139.129 18.8083 137.354 15.5333 132.904 15.5333C128.629 15.5333 126.679 18.8083 126.679 22.0083C126.679 25.1833 128.879 28.5333 133.154 28.5333C136.254 28.5333 138.654 26.7833 139.154 24.0583H135.754ZM132.904 18.0833C134.579 18.0833 135.554 19.2083 135.654 20.6083H130.079C130.379 18.8583 131.329 18.0833 132.904 18.0833Z" fill="#E6F0ED"/>
</g>
</svg>
