<svg width="73" height="20" viewBox="0 0 73 20" fill="none" xmlns="http://www.w3.org/2000/svg">
<path d="M9.11019 0.683743H3.55695C3.17707 0.683743 2.85382 0.953936 2.79438 1.32167L0.548435 15.2687C0.509082 15.516 0.681754 15.7477 0.934338 15.7866C0.95803 15.7902 0.982126 15.7921 1.00662 15.7921H3.65775C4.03803 15.7921 4.36129 15.5212 4.42032 15.1534L5.02628 11.3916C5.08491 11.0242 5.40817 10.7533 5.78805 10.7529H7.5461C11.2043 10.7529 13.3154 9.01922 13.8667 5.5834C14.1153 4.08023 13.8772 2.89917 13.1588 2.07207C12.3693 1.16396 10.9694 0.68335 9.11099 0.68335L9.11019 0.683743ZM9.75069 5.77769C9.4471 7.72922 7.92437 7.72922 6.45224 7.72922H5.61417L6.20206 4.08456C6.2378 3.86431 6.43135 3.70188 6.65904 3.70188H7.04294C8.04564 3.70188 8.99173 3.70188 9.48043 4.26193C9.77197 4.59584 9.86112 5.09218 9.74988 5.77769H9.75069ZM25.7101 5.71476H23.0509C22.8232 5.71476 22.6293 5.87719 22.5939 6.09744L22.4763 6.82582L22.2903 6.56192C21.7145 5.74347 20.4307 5.47013 19.1493 5.47013C16.2106 5.47013 13.7005 7.65016 13.2118 10.708C12.9576 12.2332 13.319 13.692 14.2024 14.709C15.0128 15.6443 16.1725 16.034 17.5519 16.034C19.9199 16.034 21.2326 14.543 21.2326 14.543L21.1142 15.2667C21.0736 15.5141 21.2459 15.7465 21.498 15.7859C21.5221 15.7898 21.5462 15.7914 21.5703 15.7914H23.9657C24.3459 15.7914 24.6692 15.5204 24.7282 15.1526L26.1654 6.23824C26.206 5.99204 26.0345 5.75999 25.7831 5.72066C25.7591 5.71673 25.7346 5.71476 25.7101 5.71476ZM22.0032 10.7839C21.7466 12.2718 20.5407 13.2707 19.0027 13.2707C18.2305 13.2707 17.6133 13.0281 17.217 12.5683C16.8238 12.1117 16.6745 11.462 16.7997 10.7383C17.0395 9.26306 18.2655 8.23145 19.7798 8.23145C20.5351 8.23145 21.1487 8.47726 21.5531 8.94096C21.9582 9.40937 22.1189 10.063 22.0028 10.7835L22.0032 10.7839ZM39.8732 5.71476H37.2008C36.945 5.71516 36.7057 5.83944 36.5619 6.04631L32.8764 11.3636L31.3139 6.25397C31.2155 5.93383 30.9147 5.71476 30.5734 5.71476H27.9472C27.6914 5.71398 27.4838 5.91652 27.483 6.16705C27.483 6.21739 27.4914 6.26695 27.5079 6.31454L30.4513 14.7747L27.6841 18.6007C27.536 18.8048 27.585 19.0879 27.7934 19.2327C27.8717 19.2873 27.9656 19.3165 28.0616 19.3165H30.7308C30.9838 19.3165 31.2207 19.1957 31.3649 18.992L40.2531 6.42623C40.3989 6.22054 40.3467 5.93815 40.1367 5.79539C40.0592 5.74269 39.9672 5.71437 39.8728 5.71437L39.8732 5.71476Z" fill="#53918C"/>
<path d="M48.9032 0.684136H43.3492C42.9697 0.684136 42.6464 0.954723 42.5874 1.32206L40.3414 15.2691C40.3017 15.5161 40.4736 15.7477 40.7253 15.7866C40.7494 15.7902 40.7735 15.7921 40.7976 15.7921H43.6479C43.9138 15.7921 44.1394 15.6022 44.1808 15.3454L44.8181 11.392C44.8767 11.0246 45.2 10.7536 45.5798 10.7533H47.3371C50.9962 10.7533 53.1064 9.01962 53.6585 5.5838C53.9079 4.08063 53.6682 2.89956 52.9498 2.07247C52.1615 1.16435 50.762 0.683743 48.9036 0.683743L48.9032 0.684136ZM49.5437 5.77808C49.2409 7.72961 47.7182 7.72961 46.2452 7.72961H45.408L45.9967 4.08495C46.0316 3.86471 46.2252 3.70228 46.4528 3.70228H46.8367C47.8387 3.70228 48.7855 3.70228 49.2742 4.26233C49.5658 4.59623 49.6541 5.09257 49.5429 5.77808H49.5437ZM65.5023 5.71516H62.8447C62.617 5.71437 62.4231 5.87719 62.3885 6.09783L62.2709 6.82621L62.0842 6.56231C61.5083 5.74387 60.2253 5.47053 58.9439 5.47053C56.0053 5.47053 53.4963 7.65056 53.0072 10.7084C52.7538 12.2336 53.1136 13.6923 53.997 14.7094C54.809 15.6447 55.9671 16.0344 57.3465 16.0344C59.7145 16.0344 61.0272 14.5434 61.0272 14.5434L60.9088 15.2671C60.8682 15.5145 61.0405 15.7469 61.2927 15.7862C61.3172 15.7902 61.3421 15.7921 61.3666 15.7917H63.7611C64.141 15.7917 64.4638 15.5208 64.5229 15.153L65.9609 6.23863C65.9998 5.99086 65.8263 5.75881 65.5734 5.72066C65.5497 5.71712 65.526 5.71516 65.5023 5.71555V5.71516ZM61.7954 10.7843C61.5404 12.2722 60.3329 13.2711 58.7949 13.2711C58.0243 13.2711 57.4055 13.0285 57.0092 12.5687C56.616 12.1121 56.4683 11.4624 56.592 10.7387C56.8333 9.26346 58.0577 8.23185 59.572 8.23185C60.3273 8.23185 60.9409 8.47766 61.3453 8.94135C61.7521 9.40976 61.9127 10.0634 61.795 10.7839L61.7954 10.7843ZM68.6373 1.06681L66.358 15.2691C66.3183 15.5161 66.4901 15.7477 66.7419 15.7866C66.766 15.7902 66.7901 15.7921 66.8142 15.7921H69.1055C69.4862 15.7921 69.8095 15.5216 69.8681 15.1534L72.1156 1.20722C72.1554 0.959836 71.9831 0.727792 71.7305 0.688856C71.7069 0.685316 71.6832 0.68335 71.6591 0.68335H69.0931C68.8654 0.684136 68.6722 0.846567 68.6369 1.06681H68.6373Z" fill="#E6F0ED"/>
</svg>
