<svg width="16" height="16" viewBox="0 0 16 16" fill="none" xmlns="http://www.w3.org/2000/svg">
<path d="M14.384 4.03205C13.904 4.24005 13.408 4.38405 12.88 4.44805C13.424 4.12805 13.84 3.61605 14.032 2.99205C13.52 3.29605 12.96 3.50405 12.368 3.63205C11.888 3.12005 11.2 2.80005 10.448 2.80005C8.992 2.80005 7.824 3.98405 7.824 5.42405C7.824 5.63205 7.84 5.82405 7.888 6.01605C5.712 5.92005 3.792 4.86405 2.496 3.28005C1.568 4.94405 2.608 6.32005 3.296 6.78405C2.88 6.78405 2.464 6.65605 2.112 6.46405C2.112 7.76005 3.024 8.83205 4.208 9.07205C3.952 9.15205 3.376 9.20005 3.024 9.12005C3.36 10.16 4.336 10.928 5.472 10.944C4.576 11.648 3.264 12.208 1.584 12.032C2.752 12.784 4.128 13.216 5.616 13.216C10.448 13.216 13.072 9.21605 13.072 5.76005C13.072 5.64805 13.072 5.53605 13.056 5.42405C13.6 5.02405 14.048 4.56005 14.384 4.03205Z" fill="#EAECF0"/>
</svg>
